<svg xmlns="http://www.w3.org/2000/svg" width="44" height="88" viewBox="0 0 20 44" fill="#000" className="w-20 h-auto" >
<path d="M7.37799 40.1945L1.28326 38.5193L1.49057 37.7236L7.58529 39.3988C7.50237 39.5244 7.46091 39.6501 7.41945 39.7757C7.37799 39.9014 7.37799 40.027 7.37799 40.1945Z" fill="lightGray"/>
<path d="M15.9189 20.5937L8.24866 18.4578C8.33158 18.3322 8.4145 18.2065 8.4145 18.0809C8.45596 17.9971 8.45596 17.8715 8.45596 17.7877C8.45596 17.7459 8.45596 17.704 8.45596 17.6621L16.1677 19.798L15.9189 20.5937Z" fill="lightGray"/>
<path d="M18.2818 6.52362L12.1871 4.84844C12.27 4.72281 12.3115 4.59717 12.3529 4.47153C12.3944 4.34589 12.3944 4.17837 12.3944 4.05273L18.4891 5.72791L18.2818 6.52362Z" fill="lightGray"/>
<path d="M18.199 10.2083L9.65814 7.86309C9.74106 7.73745 9.78252 7.61182 9.82399 7.48618C9.86545 7.36054 9.86545 7.19302 9.86545 7.06738L18.4063 9.41263L18.199 10.2083Z" fill="lightGray"/>
<path d="M18.1161 13.8528L8.20697 11.1307V11.0888C8.24843 10.9632 8.33135 10.8794 8.37281 10.7538C8.41427 10.6281 8.41427 10.5025 8.41427 10.3768V10.335L18.3234 13.0571L18.1161 13.8528Z" fill="lightGray"/>
<path d="M17.2455 17.2868L7.83392 14.6902C7.91684 14.5646 7.95831 14.439 7.99977 14.3133C8.04123 14.1877 8.04123 14.1039 8.04123 13.9783C8.04123 13.9364 8.04123 13.8945 8.04123 13.8945L17.4528 16.4911L17.2455 17.2868Z" fill="lightGray"/>
<path d="M11.1091 26.4998L5.76062 25.034L5.96792 24.2383L11.3164 25.7041C11.2334 25.8297 11.1505 25.9553 11.1505 26.081C11.1091 26.1647 11.1091 26.2904 11.1091 26.3741C11.0676 26.416 11.1091 26.4579 11.1091 26.4998Z" fill="lightGray"/>
<path d="M11.6895 30.3525L2.73401 27.8816L2.94131 27.0859L11.8968 29.5568C11.8139 29.6825 11.7724 29.8081 11.731 29.9337C11.6895 30.0594 11.6895 30.1431 11.6895 30.2688C11.6895 30.2688 11.6895 30.3107 11.6895 30.3525Z" fill="lightGray"/>
<path d="M11.524 33.9552L2.65143 31.5262L2.90019 30.7305L11.7728 33.2014C11.6899 33.327 11.6484 33.4526 11.6069 33.5783C11.5655 33.7039 11.5655 33.8295 11.5655 33.9133C11.524 33.9133 11.524 33.9552 11.524 33.9552Z" fill="lightGray"/>
<path d="M10.0727 37.2631L1.78058 34.9598L1.98788 34.1641L10.28 36.4674C10.1971 36.5931 10.1556 36.7187 10.1142 36.8443C10.0727 36.97 10.0727 37.0956 10.0727 37.2631Z" fill="lightGray"/>
<path d="M10.363 5.6436C11.1093 5.853 11.8555 5.51796 12.2287 4.84789C12.3116 4.72225 12.3531 4.59662 12.3945 4.47098C12.436 4.34534 12.436 4.17782 12.436 4.05218C12.436 3.29835 11.9799 2.62828 11.2336 2.41889C10.363 2.16761 9.45083 2.71204 9.20206 3.59151C8.9533 4.47098 9.45083 5.39232 10.363 5.6436Z" fill="lightGray"/>
<path d="M12.1871 27.5046C12.1041 27.5046 11.9798 27.5046 11.8968 27.4628C11.4408 27.3371 11.1091 26.9602 11.0676 26.4995C11.0676 26.4577 11.0676 26.4158 11.0676 26.3739C11.0676 26.2901 11.0676 26.1645 11.1091 26.0808C11.1505 25.9551 11.192 25.8295 11.2749 25.7038C11.4822 25.4107 11.8139 25.2432 12.1871 25.2432C12.27 25.2432 12.3944 25.2432 12.4773 25.285C13.0577 25.4526 13.4309 26.0808 13.265 26.6671C13.1407 27.1696 12.6846 27.5046 12.1871 27.5046Z" fill="lightGray"/>
<path d="M12.9336 31.5255C12.8092 31.5255 12.7263 31.5255 12.6019 31.4836C12.0629 31.3579 11.7312 30.8554 11.6898 30.3528C11.6898 30.311 11.6898 30.2691 11.6898 30.2691C11.6898 30.1434 11.6898 30.0597 11.7312 29.934C11.7727 29.8084 11.8141 29.6828 11.8971 29.5571C12.1458 29.2221 12.519 29.0127 12.9336 29.0127C13.058 29.0127 13.1409 29.0127 13.2653 29.0546C13.9286 29.2221 14.3432 29.934 14.1359 30.6041C14.0116 31.1485 13.4726 31.5255 12.9336 31.5255Z" fill="lightGray"/>
<path d="M12.9335 35.3352C12.8091 35.3352 12.6847 35.3352 12.5603 35.2933C11.9384 35.1258 11.5653 34.5814 11.5238 33.9951C11.5238 33.9532 11.5238 33.9532 11.5238 33.9113C11.5238 33.7857 11.5238 33.66 11.5653 33.5763C11.6067 33.4506 11.6482 33.325 11.7311 33.1994C11.9799 32.7806 12.4359 32.5293 12.892 32.5293C13.0164 32.5293 13.1408 32.5293 13.2652 32.5712C14.0114 32.7806 14.4261 33.5344 14.2602 34.2882C14.0944 34.9164 13.5554 35.3352 12.9335 35.3352Z" fill="lightGray"/>
<path d="M11.6069 38.8121C11.4825 38.8121 11.3166 38.8121 11.1923 38.7702C10.5289 38.6027 10.0728 37.9745 10.0728 37.3044C10.0728 37.1788 10.0728 37.0531 10.1143 36.8856C10.1557 36.76 10.1972 36.6343 10.2801 36.5087C10.5703 36.048 11.0679 35.7549 11.6069 35.7549C11.7312 35.7549 11.8556 35.7549 12.0215 35.7968C12.8507 36.0062 13.3067 36.8856 13.0994 37.6813C12.8921 38.3514 12.2702 38.8121 11.6069 38.8121Z" fill="lightGray"/>
<path d="M9.40928 38.603C8.66299 38.3936 7.91669 38.7286 7.54355 39.3987C7.46062 39.5243 7.41916 39.65 7.3777 39.7756C7.33624 39.9013 7.33624 40.0688 7.33624 40.1944C7.33624 40.9482 7.79231 41.6183 8.5386 41.8277C9.40928 42.079 10.3214 41.5346 10.5702 40.6551C10.8189 39.7756 10.3214 38.8543 9.40928 38.603Z" fill="lightGray"/>
<path d="M7.00484 11.7571C6.88046 11.7571 6.75608 11.7571 6.6317 11.7152C5.8854 11.5058 5.4708 10.752 5.63664 9.99816C5.80248 9.36997 6.38293 8.95117 6.96338 8.95117C7.08776 8.95117 7.21215 8.95117 7.33653 8.99305C7.95844 9.16057 8.37305 9.74688 8.37305 10.3332C8.37305 10.4588 8.37305 10.5845 8.33159 10.7101C8.29012 10.8357 8.24866 10.9614 8.16574 11.0451C7.95844 11.4639 7.50237 11.7571 7.00484 11.7571Z" fill="lightGray"/>
<path d="M6.79738 15.2335C6.673 15.2335 6.59008 15.2335 6.46569 15.1916C5.80232 15.0241 5.38771 14.3121 5.59502 13.642C5.76086 13.0976 6.25839 12.7207 6.79738 12.7207C6.92176 12.7207 7.00468 12.7207 7.12906 12.7626C7.66805 12.9301 7.99974 13.3908 8.0412 13.8933C8.0412 13.9352 8.0412 13.9771 8.0412 13.9771C8.0412 14.0608 8.0412 14.1865 7.99974 14.3121C7.95828 14.4378 7.91682 14.5634 7.8339 14.689C7.58513 15.0241 7.21199 15.2335 6.79738 15.2335Z" fill="lightGray"/>
<path d="M7.3363 18.9617C7.25338 18.9617 7.129 18.9617 7.04608 18.9198C6.46563 18.7523 6.09248 18.1241 6.25832 17.5378C6.38271 17.0352 6.83877 16.7002 7.3363 16.7002C7.41922 16.7002 7.54361 16.7002 7.62653 16.7421C8.0826 16.8677 8.41428 17.2446 8.45574 17.7053C8.45574 17.7472 8.45574 17.7891 8.45574 17.8309C8.45574 17.9147 8.45574 18.0403 8.41428 18.1241C8.37282 18.2497 8.33136 18.3754 8.24844 18.501C8.04113 18.7523 7.70945 18.9617 7.3363 18.9617Z" fill="lightGray"/>
<path d="M8.20694 8.65906C8.08256 8.65906 7.91672 8.65906 7.79234 8.61718C6.92166 8.36591 6.42413 7.44456 6.63144 6.56509C6.83874 5.81126 7.50211 5.35059 8.20694 5.35059C8.33133 5.35059 8.49717 5.35059 8.62155 5.39247C9.36785 5.60186 9.82391 6.27193 9.82391 7.02576C9.82391 7.1514 9.82391 7.31892 9.78245 7.44456C9.74099 7.5702 9.69953 7.69583 9.61661 7.82147C9.36785 8.36591 8.7874 8.65906 8.20694 8.65906Z" fill="lightGray"/>
<path fill-rule="evenodd" clip-rule="evenodd" d="M12.9335 19.3386C12.6848 20.218 13.2238 21.1394 14.0944 21.3907C14.9651 21.6419 15.8772 21.0975 16.126 20.218C16.3748 19.3386 15.8358 18.4172 14.9651 18.166C14.0944 17.9147 13.1823 18.4591 12.9335 19.3386Z" fill="lightGray"/>
<path fill-rule="evenodd" clip-rule="evenodd" d="M4.55881 41.7446C4.68319 41.2421 4.39297 40.6976 3.89544 40.572C3.39791 40.4463 2.85892 40.7395 2.73454 41.2421C2.61016 41.7446 2.90038 42.2891 3.39791 42.4147C3.89544 42.5403 4.43443 42.2472 4.55881 41.7446Z" fill="lightGray"/>
<path fill-rule="evenodd" clip-rule="evenodd" d="M6.17543 43.5027C6.25836 43.1676 6.05105 42.7907 5.71937 42.7069C5.38768 42.6232 5.01454 42.8326 4.93161 43.1676C4.84869 43.5027 5.056 43.8796 5.38768 43.9633C5.71937 44.089 6.05105 43.8796 6.17543 43.5027Z" fill="lightGray"/>
<path fill-rule="evenodd" clip-rule="evenodd" d="M3.64611 24.0291C3.39735 24.9086 3.93634 25.8299 4.80702 26.0812C5.67769 26.3325 6.58983 25.788 6.83859 24.9086C7.08735 24.0291 6.54837 23.1077 5.67769 22.8565C4.80702 22.6052 3.89488 23.1077 3.64611 24.0291Z" fill="lightGray"/>
<path fill-rule="evenodd" clip-rule="evenodd" d="M0.122013 30.3936C-0.0852909 31.1474 0.370777 31.9013 1.11707 32.1107C1.86336 32.3201 2.60966 31.8594 2.81696 31.1056C3.02426 30.3517 2.5682 29.5979 1.8219 29.3885C1.11707 29.1791 0.329316 29.6398 0.122013 30.3936Z" fill="lightGray"/>
<path fill-rule="evenodd" clip-rule="evenodd" d="M0.0392292 34.0373C-0.126614 34.7073 0.246533 35.4193 0.909904 35.5868C1.57328 35.7543 2.27811 35.3774 2.44395 34.7073C2.60979 34.0373 2.23665 33.3253 1.57328 33.1578C0.909904 32.9903 0.246533 33.3672 0.0392292 34.0373Z" fill="lightGray"/>
<path fill-rule="evenodd" clip-rule="evenodd" d="M0.744286 37.9324C0.578443 38.5187 0.95159 39.1469 1.53204 39.3144C2.11249 39.4819 2.7344 39.105 2.90024 38.5187C3.06609 37.9324 2.69294 37.3042 2.11249 37.1367C1.53204 36.9691 0.910129 37.3042 0.744286 37.9324Z" fill="lightGray"/>
<path fill-rule="evenodd" clip-rule="evenodd" d="M1.11718 27.0017C0.86842 27.8811 1.40741 28.8025 2.27808 29.0538C3.14876 29.305 4.06089 28.7606 4.30966 27.8811C4.55842 27.0017 4.01943 26.0803 3.14876 25.829C2.23662 25.5778 1.36595 26.1222 1.11718 27.0017Z" fill="lightGray"/>
<path fill-rule="evenodd" clip-rule="evenodd" d="M11.1092 22.3963C11.358 21.5587 10.8605 20.6792 9.9898 20.428C9.16059 20.1767 8.28991 20.6792 8.04115 21.5587C7.79238 22.3963 8.28991 23.2758 9.16059 23.527C9.9898 23.7364 10.8605 23.2339 11.1092 22.3963Z" fill="lightGray"/>
<path fill-rule="evenodd" clip-rule="evenodd" d="M14.136 0.367033C13.9702 0.702069 14.0945 1.07898 14.4262 1.2465C14.7579 1.41402 15.1311 1.28838 15.2969 0.953345C15.4627 0.61831 15.3384 0.241395 15.0067 0.0738773C14.675 -0.0936405 14.3018 0.0319978 14.136 0.367033Z" fill="lightGray"/>
<path fill-rule="evenodd" clip-rule="evenodd" d="M15.4212 2.37688C15.1724 2.83755 15.3797 3.42386 15.8358 3.63326C16.2919 3.88453 16.8723 3.67514 17.0796 3.21446C17.2869 2.75379 17.1211 2.16748 16.665 1.95808C16.2089 1.7068 15.6285 1.9162 15.4212 2.37688Z" fill="lightGray"/>
<path fill-rule="evenodd" clip-rule="evenodd" d="M16.5819 5.56C16.4576 5.97879 16.5819 6.3557 16.8307 6.64886C16.9551 6.81638 17.1624 6.9839 17.4112 7.02578C17.9916 7.19329 18.6135 6.81638 18.7794 6.23007C18.8623 5.97879 18.8208 5.68563 18.6964 5.43436C18.5721 5.09932 18.2818 4.80616 17.9501 4.72241C17.3697 4.59677 16.7478 4.97368 16.5819 5.56Z" fill="lightGray"/>
<path fill-rule="evenodd" clip-rule="evenodd" d="M17.2452 9.49722C17.0793 10.1673 17.4525 10.8792 18.1158 11.0468C18.7792 11.2143 19.484 10.8374 19.6499 10.1673C19.8157 9.49722 19.4426 8.78527 18.7792 8.61775C18.1158 8.45023 17.4525 8.82715 17.2452 9.49722Z" fill="lightGray"/>
<path fill-rule="evenodd" clip-rule="evenodd" d="M17.121 13.1407C16.9137 13.8945 17.3698 14.6483 18.1161 14.8577C18.8624 15.0671 19.6087 14.6065 19.816 13.8526C20.0233 13.0988 19.5672 12.345 18.8209 12.1356C18.0746 11.9262 17.3283 12.3869 17.121 13.1407Z" fill="lightGray"/>
<path fill-rule="evenodd" clip-rule="evenodd" d="M15.6701 16.407C15.4628 17.2446 15.9189 18.0822 16.7481 18.2916C17.5773 18.501 18.4065 18.0403 18.6138 17.2027C18.8211 16.3651 18.3651 15.5275 17.5358 15.3181C16.7066 15.1087 15.8774 15.6113 15.6701 16.407Z" fill="lightGray"/>
</svg>